<svg xmlns="http://www.w3.org/2000/svg" viewBox="0 0 48 48"><title>cloud moon</title><g class="nc-icon-wrapper"><path fill="#EFD358" d="M34,27c-7.1679688,0-13-5.831543-13-13S26.8320312,1,34,1h1v1c0,6.0654297,4.9345703,11,11,11h1v1 C47,21.168457,41.1679688,27,34,27z"></path> <path fill="#666666" d="M36,47H18C8.6259766,47,1,39.3740234,1,30s7.6259766-17,17-17 c7.6914062,0,14.265625,4.9672852,16.3271484,12.2001953C34.8701172,25.0844727,35.4257812,25,36,25c6.1679688,0,11,4.831543,11,11 S42.1679688,47,36,47z"></path></g></svg>