<svg xmlns="http://www.w3.org/2000/svg" viewBox="0 0 48 48"><title>cloud download</title><g class="nc-icon-wrapper"><path d="M47.985,21.957a18.742,18.742,0,0,0-6.319-13.1A19.029,19.029,0,0,0,27.985,4.064a18.76,18.76,0,0,0-17.312,14.05A11.893,11.893,0,0,0-.015,29.964a12.014,12.014,0,0,0,12,12H30.091a18.74,18.74,0,0,0,13.1-6.319A18.957,18.957,0,0,0,47.985,21.957Z" fill="#cbeafb"></path><path d="M31.682,30.707l-7,7a1,1,0,0,1-1.414,0l-7-7a1,1,0,0,1,1.414-1.414l5.293,5.293V21a1,1,0,0,1,2,0V34.586l5.293-5.293a1,1,0,0,1,1.439,1.389Z" fill="#2a4b55"></path></g></svg>