<svg xmlns="http://www.w3.org/2000/svg" viewBox="0 0 48 48"><title>fahrenheit</title><g class="nc-icon-wrapper"><path fill="#E86C60" d="M12,11c-2.7568359,0-5-2.2431641-5-5s2.2431641-5,5-5s5,2.2431641,5,5S14.7568359,11,12,11z M12,3 c-1.6542969,0-3,1.3457031-3,3s1.3457031,3,3,3s3-1.3457031,3-3S13.6542969,3,12,3z"></path> <path fill="#E86C60" d="M24,45c-0.5527344,0-1-0.4472656-1-1V12c0-0.5527344,0.4472656-1,1-1h18c0.5527344,0,1,0.4472656,1,1 s-0.4472656,1-1,1H25v31C25,44.5527344,24.5527344,45,24,45z"></path> <path fill="#E86C60" d="M42,27H24c-0.5527344,0-1-0.4472656-1-1s0.4472656-1,1-1h18c0.5527344,0,1,0.4472656,1,1 S42.5527344,27,42,27z"></path></g></svg>