<svg xmlns="http://www.w3.org/2000/svg" viewBox="0 0 48 48"><title>rain hail</title><g class="nc-icon-wrapper"><path fill="#42A6DD" d="M24,27c-0.2558594,0-0.5117188-0.0976562-0.7070312-0.2929688 c-0.390625-0.390625-0.390625-1.0234375,0-1.4140625l2-2c0.390625-0.390625,1.0234375-0.390625,1.4140625,0 s0.390625,1.0234375,0,1.4140625l-2,2C24.5117188,26.9023438,24.2558594,27,24,27z"></path> <path fill="#42A6DD" d="M32,19c-0.2558594,0-0.5117188-0.0976562-0.7070312-0.2929688 c-0.390625-0.390625-0.390625-1.0234375,0-1.4140625l12-12c0.390625-0.390625,1.0234375-0.390625,1.4140625,0 s0.390625,1.0234375,0,1.4140625l-12,12C32.5117188,18.9023438,32.2558594,19,32,19z"></path> <path fill="#42A6DD" d="M24,42c-0.2558594,0-0.5117188-0.0976562-0.7070312-0.2929688 c-0.390625-0.390625-0.390625-1.0234375,0-1.4140625l2-2c0.390625-0.390625,1.0234375-0.390625,1.4140625,0 s0.390625,1.0234375,0,1.4140625l-2,2C24.5117188,41.9023438,24.2558594,42,24,42z"></path> <path fill="#42A6DD" d="M32,34c-0.2558594,0-0.5117188-0.0976562-0.7070312-0.2929688 c-0.390625-0.390625-0.390625-1.0234375,0-1.4140625l12-12c0.390625-0.390625,1.0234375-0.390625,1.4140625,0 s0.390625,1.0234375,0,1.4140625l-12,12C32.5117188,33.9023438,32.2558594,34,32,34z"></path> <path fill="#42A6DD" d="M4,33c-0.2558594,0-0.5117188-0.0976562-0.7070312-0.2929688 c-0.390625-0.390625-0.390625-1.0234375,0-1.4140625l2-2c0.390625-0.390625,1.0234375-0.390625,1.4140625,0 s0.390625,1.0234375,0,1.4140625l-2,2C4.5117188,32.9023438,4.2558594,33,4,33z"></path> <path fill="#42A6DD" d="M12,25c-0.2558594,0-0.5117188-0.0976562-0.7070312-0.2929688 c-0.390625-0.390625-0.390625-1.0234375,0-1.4140625l12-12c0.390625-0.390625,1.0234375-0.390625,1.4140625,0 s0.390625,1.0234375,0,1.4140625l-12,12C12.5117188,24.9023438,12.2558594,25,12,25z"></path></g></svg>