<svg xmlns="http://www.w3.org/2000/svg" viewBox="0 0 48 48"><title>sun</title><g class="nc-icon-wrapper"><path fill="#EA9860" d="M24,9c-0.55273,0-1-0.44775-1-1V2c0-0.55225,0.44727-1,1-1s1,0.44775,1,1v6C25,8.55225,24.55273,9,24,9z"></path> <path fill="#EA9860" d="M13.3934,13.3934c-0.39084,0.39084-1.02372,0.3905-1.41421,0L7.73654,9.15076 c-0.3905-0.3905-0.39084-1.02337,0-1.41421c0.39084-0.39084,1.02372-0.3905,1.41421,0l4.24264,4.24264 C13.7839,12.36968,13.78424,13.00256,13.3934,13.3934z"></path> <path fill="#EA9860" d="M9,24c0,0.55273-0.44775,1-1,1H2c-0.55225,0-1-0.44727-1-1s0.44775-1,1-1h6C8.55225,23,9,23.44727,9,24z"></path> <path fill="#EA9860" d="M13.3934,34.6066c0.39084,0.39084,0.3905,1.02372,0,1.41422l-4.24264,4.24264 c-0.3905,0.3905-1.02337,0.39084-1.41421,0c-0.39084-0.39084-0.3905-1.02372,0-1.41421l4.24264-4.24264 C12.36968,34.21611,13.00256,34.21576,13.3934,34.6066z"></path> <path fill="#EA9860" d="M24,39c0.55273,0,1,0.44775,1,1v6c0,0.55225-0.44727,1-1,1s-1-0.44775-1-1v-6C23,39.44775,23.44727,39,24,39 z"></path> <path fill="#EA9860" d="M34.6066,34.6066c0.39084-0.39084,1.02372-0.3905,1.41422,0l4.24264,4.24264 c0.3905,0.3905,0.39084,1.02337,0,1.41421s-1.02372,0.3905-1.41421,0l-4.24264-4.24264 C34.21611,35.63032,34.21576,34.99744,34.6066,34.6066z"></path> <path fill="#EA9860" d="M39,24c0-0.55273,0.44775-1,1-1h6c0.55225,0,1,0.44727,1,1s-0.44775,1-1,1h-6C39.44775,25,39,24.55273,39,24 z"></path> <path fill="#EA9860" d="M34.6066,13.3934c-0.39084-0.39084-0.3905-1.02372,0-1.41421l4.24264-4.24264 c0.3905-0.3905,1.02337-0.39084,1.41421,0c0.39084,0.39084,0.3905,1.02372,0,1.41421l-4.24264,4.24264 C35.63032,13.7839,34.99744,13.78424,34.6066,13.3934z"></path> <path fill="#EFD358" d="M24,37c-7.16797,0-13-5.83154-13-13s5.83203-13,13-13s13,5.83154,13,13S31.16797,37,24,37z"></path></g></svg>