<svg xmlns="http://www.w3.org/2000/svg" viewBox="0 0 48 48"><title>temperature 2</title><g class="nc-icon-wrapper"><path d="M35,24.617V7A6,6,0,0,0,23,7V24.617a12,12,0,1,0,12,0Z" fill="#bfdee0"></path><path d="M31,29.353V15H27V29.353a6,6,0,1,0,4,0Z" fill="#ed7064"></path><path d="M16,7H6A1,1,0,0,1,6,5H16a1,1,0,0,1,0,2Z" fill="#b3b3b3"></path><path d="M16,13H12a1,1,0,0,1,0-2h4a1,1,0,0,1,0,2Z" fill="#b3b3b3"></path><path d="M16,19H6a1,1,0,0,1,0-2H16a1,1,0,0,1,0,2Z" fill="#b3b3b3"></path><path d="M16,25H12a1,1,0,0,1,0-2h4a1,1,0,0,1,0,2Z" fill="#b3b3b3"></path></g></svg>