<svg xmlns="http://www.w3.org/2000/svg" viewBox="0 0 48 48"><title>umbrella 13</title><g class="nc-icon-wrapper"><path fill="#5B5B5B" d="M30,47c-3.86,0-7-3.14-7-7V24c0-0.552,0.448-1,1-1s1,0.448,1,1v16c0,2.757,2.243,5,5,5s5-2.243,5-5 c0-0.552,0.448-1,1-1s1,0.448,1,1C37,43.86,33.86,47,30,47z"></path> <path fill="#43A6DD" d="M24,5C13.159,5,4.176,13.125,3.106,23.901c-0.028,0.281,0.064,0.561,0.254,0.77 C3.549,24.88,3.819,25,4.101,25h39.798c0.282,0,0.552-0.12,0.741-0.329c0.189-0.209,0.282-0.489,0.254-0.77 C43.824,13.126,34.842,5,24,5z"></path> <path fill="#458BC4" d="M24,5c-5.922,2.947-8,10.2-8,20h16C32,15.2,29.922,7.947,24,5z"></path> <path fill="#5B5B5B" d="M24,6c-0.552,0-1-0.448-1-1V2c0-0.552,0.448-1,1-1s1,0.448,1,1v3C25,5.552,24.552,6,24,6z"></path></g></svg>